<svg width="725" height="725" viewBox="0 0 725 725" fill="none" xmlns="http://www.w3.org/2000/svg">
<g clip-path="url(#clip0_34_11)">
<path d="M387.18 542.47C371.06 558.35 352.17 570.86 330.53 580C308.88 589.15 285.31 593.71 259.81 593.71C234.31 593.71 210.14 589.14 188.72 580C167.32 570.86 148.55 558.35 132.43 542.47C116.31 526.6 103.92 507.72 95.2603 485.82C86.6003 463.93 82.27 440.24 82.27 414.73C82.27 389.22 86.6003 365.78 95.2603 344.37C103.92 322.97 116.18 304.2 132.06 288.08C138 282.05 144.48 276.72 151.23 271.73C139.44 240.39 131.87 208.53 128.77 177.07C108.2 188.81 89.66 203.16 73.25 220.24C49.92 244.54 31.8701 273.28 19.1201 306.48C6.38012 339.68 0 375.76 0 414.73C0 453.7 6.49998 490.51 19.48 523.7C32.47 556.9 50.6402 585.77 73.9702 610.3C97.3102 634.84 124.73 653.85 156.24 667.31C187.76 680.78 222.27 687.52 259.8 687.52C297.33 687.52 331.13 680.79 362.64 667.31C394.16 653.85 421.71 634.83 445.27 610.3C461.08 593.85 474.46 575.34 485.5 554.89C456.27 550.48 427.04 542.13 398.45 530.12C394.92 534.42 391.16 538.53 387.18 542.46V542.47Z" fill="#ED9C4E"/>
<path d="M261.25 535.81C292.89 535.81 321.61 522.76 342.97 501.65C327.27 492.08 311.93 481.38 297.08 469.56C286.82 476.99 274.5 481.34 261.26 481.34C225.6 481.34 196.58 449.89 196.58 411.22C196.58 397.58 200.25 384.88 206.49 374.09C195.04 358.12 184.66 341.68 175.57 324.87C154.9 347.29 142.11 377.7 142.11 411.22C142.11 479.92 195.56 535.8 261.26 535.8L261.25 535.81Z" fill="#ED9C4E"/>
<path d="M166.81 88.9904L164.42 103.66C147.96 204.68 193.18 322.49 282.43 411.13C368.65 496.76 479.19 537.85 578.12 521.03L571.27 480.73C485.33 495.34 388.12 458.48 311.24 382.13C235.74 307.15 195.16 210.19 202.85 125.4C338.44 114.61 498.42 230.26 545.2 376.41L584.131 363.95C529.061 191.91 340.92 62.3804 181.5 86.7504L166.8 89.0004L166.81 88.9904Z" fill="#0A1845"/>
<path d="M307.29 40.7104L314.14 81.0104C400.09 66.4004 497.29 103.26 574.17 179.61C649.67 254.59 690.26 351.55 682.56 436.34C546.97 447.13 386.99 331.48 340.21 185.33L301.28 197.79C354.11 362.84 529.42 488.68 684.35 477.11C690.91 476.62 697.44 475.98 703.92 474.99L718.61 472.74L721 458.07C737.46 357.05 692.23 239.24 602.98 150.6C591.08 138.78 578.67 127.89 565.93 117.8C486.41 54.8104 392.56 26.2004 307.29 40.7004V40.7104Z" fill="#0A1845"/>
</g>
<defs>
<clipPath id="clip0_34_11">
<rect width="724.34" height="724.34" fill="white"/>
</clipPath>
</defs>
</svg>
