<svg width="468" height="699" viewBox="0 0 468 699" fill="none" xmlns="http://www.w3.org/2000/svg">
<path d="M2 0H235V233V233C106.318 233 2 128.682 2 0V0Z" fill="#ED9C4E"/>
<path d="M235 0H468V0C468 128.682 363.682 233 235 233V233V0Z" fill="#E46157"/>
<path d="M235 0H367.441V0C367.441 72.9016 307.902 132 235 132V132V0Z" fill="#EAE5D8"/>
<path d="M233 466C233 337.318 337.318 233 466 233V233V233C466 361.682 361.682 466 233 466V466V466Z" fill="#E46157"/>
<path d="M233 466C104.318 466 0 361.682 0 233V233V233C128.682 233 233 337.318 233 466V466V466Z" fill="#ED9C4E"/>
<path d="M466 699C337.318 699 233 594.682 233 466V466V466C361.682 466 466 570.318 466 699V699V699Z" fill="#002F7A"/>
<rect x="2" y="491" width="24" height="24" rx="12" fill="#F7FAFB"/>
<rect x="60" y="491" width="24" height="24" rx="12" fill="#F7FAFB"/>
<rect x="118" y="491" width="24" height="24" rx="12" fill="#F7FAFB"/>
<rect x="176" y="491" width="24" height="24" rx="12" fill="#F7FAFB"/>
<rect x="2" y="537" width="24" height="24" rx="12" fill="#F7FAFB"/>
<rect x="60" y="537" width="24" height="24" rx="12" fill="#F7FAFB"/>
<rect x="118" y="537" width="24" height="24" rx="12" fill="#F7FAFB"/>
<rect x="176" y="537" width="24" height="24" rx="12" fill="#F7FAFB"/>
<rect x="2" y="583" width="24" height="24" rx="12" fill="#F7FAFB"/>
<rect x="60" y="583" width="24" height="24" rx="12" fill="#F7FAFB"/>
<rect x="118" y="583" width="24" height="24" rx="12" fill="#F7FAFB"/>
<rect x="176" y="583" width="24" height="24" rx="12" fill="#F7FAFB"/>
<rect x="2" y="629" width="24" height="24" rx="12" fill="#F7FAFB"/>
<rect x="60" y="629" width="24" height="24" rx="12" fill="#F7FAFB"/>
<rect x="118" y="629" width="24" height="24" rx="12" fill="#F7FAFB"/>
<rect x="176" y="629" width="24" height="24" rx="12" fill="#F7FAFB"/>
<rect x="2" y="675" width="24" height="24" rx="12" fill="#F7FAFB"/>
<rect x="60" y="675" width="24" height="24" rx="12" fill="#F7FAFB"/>
<rect x="118" y="675" width="24" height="24" rx="12" fill="#F7FAFB"/>
<rect x="176" y="675" width="24" height="24" rx="12" fill="#F7FAFB"/>
</svg>
