<svg width="472" height="939" viewBox="0 0 472 939" fill="none" xmlns="http://www.w3.org/2000/svg">
<path d="M0 0H157.5V157.5V157.5C70.5152 157.5 0 86.9848 0 0V0Z" fill="#ED9C4E"/>
<path d="M157 0H314.5V0C314.5 86.9848 243.985 157.5 157 157.5V157.5V0Z" fill="#E46157"/>
<path d="M157 0H246V0C246 49.1533 206.153 89 157 89V89V0Z" fill="#EAE5D8"/>
<mask id="mask0_12_6" maskUnits="userSpaceOnUse" x="0" y="0" width="315" height="315">
<rect width="315" height="315" rx="157.5" fill="#ED9C4E"/>
</mask>
<g mask="url(#mask0_12_6)">
<rect x="-158" y="157" width="315" height="315" rx="157.5" fill="#ED9C4E"/>
</g>
<mask id="mask1_12_6" maskUnits="userSpaceOnUse" x="0" y="0" width="315" height="315">
<rect width="315" height="315" rx="157.5" fill="#E46157"/>
</mask>
<g mask="url(#mask1_12_6)">
<rect x="157" y="157" width="315" height="315" rx="157.5" fill="#E46157"/>
</g>
<mask id="mask2_12_6" maskUnits="userSpaceOnUse" x="157" y="158" width="315" height="315">
<rect x="157" y="158" width="315" height="315" rx="157.5" fill="#D9D9D9" fillOpacity="0.5"/>
</mask>
<g mask="url(#mask2_12_6)">
<rect x="-1" y="315" width="315" height="315" rx="157.5" fill="#002F7A"/>
</g>
<rect x="1" y="315" width="156" height="156" fill="#002F7A"/>
<rect x="1" y="783" width="156" height="156" rx="78" fill="#E46157"/>
<rect x="44" y="825" width="71" height="71" rx="35.5" fill="#ED9C4E"/>
<path d="M157 627V627C243.156 627 313 696.844 313 783V783H157V627Z" fill="#E46157"/>
<path d="M157 694V694C206.153 694 246 733.847 246 783V783H157V694Z" fill="#ED9C4E"/>
<rect x="157" y="471" width="156" height="156" rx="78" fill="#002F7A"/>
<rect x="200" y="513" width="71" height="71" rx="35.5" fill="#E46157"/>
<rect x="1" y="471" width="156" height="156" fill="#ED9C4E"/>
<circle cx="19" cy="485" r="8" fill="#D9D9D9"/>
<circle cx="59" cy="485" r="8" fill="#D9D9D9"/>
<circle cx="99" cy="485" r="8" fill="#D9D9D9"/>
<circle cx="139" cy="485" r="8" fill="#D9D9D9"/>
<circle cx="19" cy="517" r="8" fill="#D9D9D9"/>
<circle cx="59" cy="517" r="8" fill="#D9D9D9"/>
<circle cx="99" cy="517" r="8" fill="#D9D9D9"/>
<circle cx="139" cy="517" r="8" fill="#D9D9D9"/>
<circle cx="19" cy="549" r="8" fill="#D9D9D9"/>
<circle cx="59" cy="549" r="8" fill="#D9D9D9"/>
<circle cx="99" cy="549" r="8" fill="#D9D9D9"/>
<circle cx="139" cy="549" r="8" fill="#D9D9D9"/>
<circle cx="19" cy="581" r="8" fill="#D9D9D9"/>
<circle cx="59" cy="581" r="8" fill="#D9D9D9"/>
<circle cx="99" cy="581" r="8" fill="#D9D9D9"/>
<circle cx="139" cy="581" r="8" fill="#D9D9D9"/>
<circle cx="19" cy="613" r="8" fill="#D9D9D9"/>
<circle cx="59" cy="613" r="8" fill="#D9D9D9"/>
<circle cx="99" cy="613" r="8" fill="#D9D9D9"/>
<circle cx="139" cy="613" r="8" fill="#D9D9D9"/>
<rect x="1" y="627" width="156" height="156" fill="#002F7A"/>
<circle cx="79" cy="705" r="34" fill="#EAE5D8"/>
</svg>
