<svg width="1280" height="32" viewBox="0 0 1280 32" fill="none" xmlns="http://www.w3.org/2000/svg">
<path d="M-21.2308 31.1429H8V9.42857H-8.15385V20.2857H-2.76923V14.8571H2.61539V25.7143H-13.5385V4H-52V9.42857H-44.3077V14.8571H-36.6154V20.2857H-28.9231V25.7143H-21.2308V31.1429Z" fill="#262626"/>
<path d="M38.7692 31.1429H68V9.42857H51.8462V20.2857H57.2308V14.8571H62.6154V25.7143H46.4615V4H8V9.42857H15.6923V14.8571H23.3846V20.2857H31.0769V25.7143H38.7692V31.1429Z" fill="#262626"/>
<path d="M98.7692 31.1429H128V9.42857H111.846V20.2857H117.231V14.8571H122.615V25.7143H106.462V4H68V9.42857H75.6923V14.8571H83.3846V20.2857H91.0769V25.7143H98.7692V31.1429Z" fill="#262626"/>
<path d="M158.769 31.1429H188V9.42857H171.846V20.2857H177.231V14.8571H182.615V25.7143H166.462V4H128V9.42857H135.692V14.8571H143.385V20.2857H151.077V25.7143H158.769V31.1429Z" fill="#262626"/>
<path d="M218.769 31.1429H248V9.42857H231.846V20.2857H237.231V14.8571H242.615V25.7143H226.462V4H188V9.42857H195.692V14.8571H203.385V20.2857H211.077V25.7143H218.769V31.1429Z" fill="#262626"/>
<path d="M278.769 31.1429H308V9.42857H291.846V20.2857H297.231V14.8571H302.615V25.7143H286.462V4H248V9.42857H255.692V14.8571H263.385V20.2857H271.077V25.7143H278.769V31.1429Z" fill="#262626"/>
<path d="M338.769 31.1429H368V9.42857H351.846V20.2857H357.231V14.8571H362.615V25.7143H346.462V4H308V9.42857H315.692V14.8571H323.385V20.2857H331.077V25.7143H338.769V31.1429Z" fill="#262626"/>
<path d="M398.769 31.1429H428V9.42857H411.846V20.2857H417.231V14.8571H422.615V25.7143H406.462V4H368V9.42857H375.692V14.8571H383.385V20.2857H391.077V25.7143H398.769V31.1429Z" fill="#262626"/>
<path d="M458.769 31.1429H488V9.42857H471.846V20.2857H477.231V14.8571H482.615V25.7143H466.462V4H428V9.42857H435.692V14.8571H443.385V20.2857H451.077V25.7143H458.769V31.1429Z" fill="#262626"/>
<path d="M518.769 31.1429H548V9.42857H531.846V20.2857H537.231V14.8571H542.615V25.7143H526.462V4H488V9.42857H495.692V14.8571H503.385V20.2857H511.077V25.7143H518.769V31.1429Z" fill="#262626"/>
<path d="M578.769 31.1429H608V9.42857H591.846V20.2857H597.231V14.8571H602.615V25.7143H586.462V4H548V9.42857H555.692V14.8571H563.385V20.2857H571.077V25.7143H578.769V31.1429Z" fill="#262626"/>
<path d="M638.769 31.1429H668V9.42857H651.846V20.2857H657.231V14.8571H662.615V25.7143H646.462V4H608V9.42857H615.692V14.8571H623.385V20.2857H631.077V25.7143H638.769V31.1429Z" fill="#262626"/>
<path d="M698.769 31.1429H728V9.42857H711.846V20.2857H717.231V14.8571H722.615V25.7143H706.462V4H668V9.42857H675.692V14.8571H683.385V20.2857H691.077V25.7143H698.769V31.1429Z" fill="#262626"/>
<path d="M758.769 31.1429H788V9.42857H771.846V20.2857H777.231V14.8571H782.615V25.7143H766.462V4H728V9.42857H735.692V14.8571H743.385V20.2857H751.077V25.7143H758.769V31.1429Z" fill="#262626"/>
<path d="M818.769 31.1429H848V9.42857H831.846V20.2857H837.231V14.8571H842.615V25.7143H826.462V4H788V9.42857H795.692V14.8571H803.385V20.2857H811.077V25.7143H818.769V31.1429Z" fill="#262626"/>
<path d="M878.769 31.1429H908V9.42857H891.846V20.2857H897.231V14.8571H902.615V25.7143H886.462V4H848V9.42857H855.692V14.8571H863.385V20.2857H871.077V25.7143H878.769V31.1429Z" fill="#262626"/>
<path d="M938.769 31.1429H968V9.42857H951.846V20.2857H957.231V14.8571H962.615V25.7143H946.462V4H908V9.42857H915.692V14.8571H923.385V20.2857H931.077V25.7143H938.769V31.1429Z" fill="#262626"/>
<path d="M998.769 31.1429H1028V9.42857H1011.85V20.2857H1017.23V14.8571H1022.62V25.7143H1006.46V4H968V9.42857H975.692V14.8571H983.385V20.2857H991.077V25.7143H998.769V31.1429Z" fill="#262626"/>
<path d="M1058.77 31.1429H1088V9.42857H1071.85V20.2857H1077.23V14.8571H1082.62V25.7143H1066.46V4H1028V9.42857H1035.69V14.8571H1043.38V20.2857H1051.08V25.7143H1058.77V31.1429Z" fill="#262626"/>
<path d="M1118.77 31.1429H1148V9.42857H1131.85V20.2857H1137.23V14.8571H1142.62V25.7143H1126.46V4H1088V9.42857H1095.69V14.8571H1103.38V20.2857H1111.08V25.7143H1118.77V31.1429Z" fill="#262626"/>
<path d="M1178.77 31.1429H1208V9.42857H1191.85V20.2857H1197.23V14.8571H1202.62V25.7143H1186.46V4H1148V9.42857H1155.69V14.8571H1163.38V20.2857H1171.08V25.7143H1178.77V31.1429Z" fill="#262626"/>
<path d="M1238.77 31.1429H1268V9.42857H1251.85V20.2857H1257.23V14.8571H1262.62V25.7143H1246.46V4H1208V9.42857H1215.69V14.8571H1223.38V20.2857H1231.08V25.7143H1238.77V31.1429Z" fill="#262626"/>
<path d="M1298.77 31.1429H1328V9.42857H1311.85V20.2857H1317.23V14.8571H1322.62V25.7143H1306.46V4H1268V9.42857H1275.69V14.8571H1283.38V20.2857H1291.08V25.7143H1298.77V31.1429Z" fill="#262626"/>
<path d="M1358.77 31.1429H1388V9.42857H1371.85V20.2857H1377.23V14.8571H1382.62V25.7143H1366.46V4H1328V9.42857H1335.69V14.8571H1343.38V20.2857H1351.08V25.7143H1358.77V31.1429Z" fill="#262626"/>
<path d="M1418.77 31.1429H1448V9.42857H1431.85V20.2857H1437.23V14.8571H1442.62V25.7143H1426.46V4H1388V9.42857H1395.69V14.8571H1403.38V20.2857H1411.08V25.7143H1418.77V31.1429Z" fill="#262626"/>
<path d="M1478.77 31.1429H1508V9.42857H1491.85V20.2857H1497.23V14.8571H1502.62V25.7143H1486.46V4H1448V9.42857H1455.69V14.8571H1463.38V20.2857H1471.08V25.7143H1478.77V31.1429Z" fill="#262626"/>
<path d="M1538.77 31.1429H1568V9.42857H1551.85V20.2857H1557.23V14.8571H1562.62V25.7143H1546.46V4H1508V9.42857H1515.69V14.8571H1523.38V20.2857H1531.08V25.7143H1538.77V31.1429Z" fill="#262626"/>
<path d="M1598.77 31.1429H1628V9.42857H1611.85V20.2857H1617.23V14.8571H1622.62V25.7143H1606.46V4H1568V9.42857H1575.69V14.8571H1583.38V20.2857H1591.08V25.7143H1598.77V31.1429Z" fill="#262626"/>
<path d="M1658.77 31.1429H1688V9.42857H1671.85V20.2857H1677.23V14.8571H1682.62V25.7143H1666.46V4H1628V9.42857H1635.69V14.8571H1643.38V20.2857H1651.08V25.7143H1658.77V31.1429Z" fill="#262626"/>
<path d="M1718.77 31.1429H1748V9.42857H1731.85V20.2857H1737.23V14.8571H1742.62V25.7143H1726.46V4H1688V9.42857H1695.69V14.8571H1703.38V20.2857H1711.08V25.7143H1718.77V31.1429Z" fill="#262626"/>
<path d="M1778.77 31.1429H1808V9.42857H1791.85V20.2857H1797.23V14.8571H1802.62V25.7143H1786.46V4H1748V9.42857H1755.69V14.8571H1763.38V20.2857H1771.08V25.7143H1778.77V31.1429Z" fill="#262626"/>
<path d="M1838.77 31.1429H1868V9.42857H1851.85V20.2857H1857.23V14.8571H1862.62V25.7143H1846.46V4H1808V9.42857H1815.69V14.8571H1823.38V20.2857H1831.08V25.7143H1838.77V31.1429Z" fill="#262626"/>
<path d="M1898.77 31.1429H1928V9.42857H1911.85V20.2857H1917.23V14.8571H1922.62V25.7143H1906.46V4H1868V9.42857H1875.69V14.8571H1883.38V20.2857H1891.08V25.7143H1898.77V31.1429Z" fill="#262626"/>
<path d="M1958.77 31.1429H1988V9.42857H1971.85V20.2857H1977.23V14.8571H1982.62V25.7143H1966.46V4H1928V9.42857H1935.69V14.8571H1943.38V20.2857H1951.08V25.7143H1958.77V31.1429Z" fill="#262626"/>
<path d="M2018.77 31.1429H2048V9.42857H2031.85V20.2857H2037.23V14.8571H2042.62V25.7143H2026.46V4H1988V9.42857H1995.69V14.8571H2003.38V20.2857H2011.08V25.7143H2018.77V31.1429Z" fill="#262626"/>
<path d="M-87 0H1364V4H-87V0Z" fill="#262626"/>
</svg>
